# AST/ASF file generated using VICON BodyLanguage
# -----------------------------------------------
:version 1.10
:name VICON
:units
  mass 1.0
  length 0.45
  angle deg
:documentation
   .ast/.asf automatically generated from VICON data using
   VICON BodyBuilder and BodyLanguage model FoxedUp or BRILLIANT.MOD
:root
   order TX TY TZ RX RY RZ
   axis XYZ
   position 0 0 0  
   orientation 0 0 0 
:bonedata
  begin
     id 1 
     name lhipjoint
     direction 0.627457 -0.725269 0.283342 
     length 2.53237 
     axis 0 0 0  XYZ
  end
  begin
     id 2 
     name lfemur
     direction 0.34202 -0.939693 0  
     length 7.32496  
     axis 0 0 20  XYZ
    dof rx ry rz
    limits (-160.0 20.0)
           (-70.0 70.0)
           (-60.0 70.0)
  end
  begin
     id 3 
     name ltibia
     direction 0.34202 -0.939693 0   
     length 7.69674   
     axis 0 0 20   XYZ
    dof rx
    limits (-10.0 170.0)
  end
  begin
     id 4 
     name lfoot
     direction 0.127289 -0.349722 0.928166   
     length 1.8612   
     axis -90 7.62852e-016 20   XYZ
    dof rx rz
    limits (-45.0 90.0)
           (-70.0 20.0)
  end
  begin
     id 5 
     name ltoes
     direction 1.53561e-011 -4.21864e-011 1   
     length 0.925608   
     axis -90 7.62852e-016 20   XYZ
    dof rx
    limits (-90.0 20.0)
  end
  begin
     id 6 
     name rhipjoint
     direction -0.609094 -0.738725 0.288599   
     length 2.48624  
     axis 0 0 0  XYZ 
  end
  begin
     id 7 
     name rfemur
     direction -0.34202 -0.939693 0   
     length 7.44259   
     axis 0 0 -20   XYZ
    dof rx ry rz
    limits (-160.0 20.0)
           (-70.0 70.0)
           (-70.0 60.0)
  end
  begin
     id 8 
     name rtibia
     direction -0.34202 -0.939693 0   
     length 7.7781   
     axis 0 0 -20   XYZ
    dof rx
    limits (-10.0 170.0)
 end
 begin
     id 9 
     name rfoot
     direction -0.107015 -0.294021 0.949789   
     length 2.14741  
     axis -90 -7.62852e-016 -20   XYZ
    dof rx rz
    limits (-45.0 90.0)
           (-20.0 70.0)
  end
  begin
     id 10 
     name rtoes
     direction -1.53497e-011 -4.21924e-011 1   
     length 1.0706   
     axis -90 -7.62852e-016 -20   XYZ
    dof rx
    limits (-90.0 20.0)
  end
  begin
     id 11 
     name lowerback
     direction -0.0142066 0.998112 -0.0597545   
     length 1.86627   
     axis 0 0 0   XYZ
    dof rx ry rz
    limits (-20.0 45.0)
           (-30.0 30.0)
           (-30.0 30.0)
  end
  begin
     id 12 
     name upperback
     direction 0.00547294 0.999744 0.0219437   
     length 1.86272   
     axis 0 0 0   XYZ
    dof rx ry rz
    limits (-20.0 45.0)
           (-30.0 30.0)
           (-30.0 30.0)
  end
  begin
     id 13 
     name thorax
     direction 0.0116162 0.998704 0.0495538   
     length 1.8703   
     axis 0 0 0   XYZ
    dof rx ry rz
    limits (-20.0 45.0)
           (-30.0 30.0)
           (-30.0 30.0)
  end
  begin
     id 14 
     name lowerneck
     direction -0.0106574 0.998739 0.0490586   
     length 1.8074   
     axis 0 0 0   XYZ
    dof rx ry rz
    limits (-20.0 45.0)
           (-30.0 30.0)
           (-30.0 30.0)
  end
  begin
     id 15 
     name upperneck
     direction 0.030527 0.976587 -0.212944   
     length 1.80681   
     axis 0 0 0   XYZ
    dof rx ry rz
    limits (-20.0 45.0)
           (-30.0 30.0)
           (-30.0 30.0)
  end
  begin
     id 16
     name head
     direction 0.00869225 0.997035 -0.0764531  
     length 1.8313  
     axis 0 0 0   XYZ
    dof rx ry rz
    limits (-20.0 45.0)
           (-30.0 30.0)
           (-30.0 30.0)
  end
  begin
     id 17 
     name lclavicle
     direction 0.915958 0.399447 0.0382386  
     length 3.78965  
     axis 0 0 0   XYZ
    dof ry rz
    limits (-20.0 10.0)
           (0.0 20.0)
  end
  begin
     id 18 
     name lhumerus
     direction 1 -4.48967e-011 3.19303e-027   
     length 4.78095   
     axis -180 -30 -90   XYZ
    dof rx ry rz
    limits (-60.0 90.0)
           (-90.0 90.0)
           (-90.0 90.0)
  end
  begin
     id 19
     name lradius
     direction 1 -4.48967e-011 -3.77974e-027   
     length 3.58615   
     axis -180 -30 -90   XYZ
    dof rx
    limits (-10.0 170.0)
  end
  begin
     id 20
     name lwrist
     direction 1 -4.48927e-011 1.2807e-027   
     length 1.79307   
     axis 1.91374e-015 90 90   XYZ
    dof ry
    limits (-180.0 0.0)
 end
  begin
     id 21 
     name lhand
     direction 1 -4.49036e-011 2.5614e-027   
     length 0.659812   
     axis -1.63439e-015 90 90   XYZ
    dof rx rz
    limits (-90.0 90.0)
           (-45.0 45.0)
  end
  begin
     id 22 
     name lfingers
     direction 1 -4.49052e-011 5.1228e-027   
     length 0.531957   
     axis -3.26879e-015 90 90   XYZ
    dof rx
    limits (0.0 90.0)
  end
  begin
     id 23
     name lthumb
     direction 0.707107 -6.35012e-011 0.707107   
     length 0.763787   
     axis -90 45 2.85299e-015   XYZ
    dof rx rz
    limits (-45.0 45.0)
           (-45.0 45.0)
  end
  begin
     id 24 
     name rclavicle
     direction -0.895351 0.435135 0.0948887   
     length 3.70497  
     axis 0 0 0   XYZ 
    dof ry rz
    limits (-10.0 20.0)
           (-20.0 0.0)
  end
  begin
     id 25 
     name rhumerus
     direction -1 -4.48971e-011 2.38946e-027  
     length 4.48913   
     axis -180 30 90   XYZ
    dof rx ry rz
    limits (-90.0 60.0)
           (-90.0 90.0)
           (-90.0 90.0)
  end
  begin
     id 26 
     name rradius
     direction -1 -4.4895e-011 4.38668e-027   
     length 3.7051   
     axis -180 30 90   XYZ
    dof rx
    limits (-10.0 170.0)
  end
  begin
     id 27 
     name rwrist
     direction -1 -4.49007e-011 1.2807e-027   
     length 1.85255   
     axis 1.91374e-015 -90 -90   XYZ
    dof ry
    limits (-180.0 0.0)
  end
  begin
     id 28
     name rhand
     direction -1 -4.48851e-011 2.5614e-027   
     length 0.449136   
     axis -1.63439e-015 -90 -90   XYZ
    dof rx rz
    limits (-90.0 90.0)
           (-45.0 45.0)
  end
  begin
     id 29
     name rfingers
     direction -1 -4.49128e-011 5.1228e-027   
     length 0.362105   
     axis -3.26879e-015 -90 -90   XYZ
    dof rx
    limits (0.0 90.0)
  end
  begin
     id 30
     name rthumb
     direction -0.707107 -6.34851e-011 0.707107   
     length 0.519912   
     axis -90 -45 -2.85299e-015   XYZ
    dof rx rz
    limits (-45.0 45.0)
           (-45.0 45.0)
  end
:hierarchy
  begin
    root lhipjoint rhipjoint lowerback
    lhipjoint lfemur
    lfemur ltibia
    ltibia lfoot
    lfoot ltoes
    rhipjoint rfemur
    rfemur rtibia
    rtibia rfoot
    rfoot rtoes
    lowerback upperback
    upperback thorax
    thorax lowerneck lclavicle rclavicle
    lowerneck upperneck
    upperneck head
    lclavicle lhumerus
    lhumerus lradius
    lradius lwrist
    lwrist lhand lthumb
    lhand lfingers
    rclavicle rhumerus
    rhumerus rradius
    rradius rwrist
    rwrist rhand rthumb
    rhand rfingers
  end

#!OML:ASF I:\Actors\actors\Patient Classification 2\Patient 1\Session 1\actor1.ASF
:FULLY-SPECIFIED
:DEGREES
65
root -0.596037 18.7051 5.75652 1.71423 0.512292 -0.924137
lowerback 3.33926 -0.141126 -1.04568
upperback -2.89526 -0.245488 0.0301709
thorax -4.85924 -0.0850788 0.635906
lowerneck -11.0245 -1.78557 -0.931246
upperneck 29.1584 -3.11879 2.50499
head 11.3243 -1.2189 0.677233
rclavicle -5.14355e-015 -1.39149e-015
rhumerus -50.7471 -8.56803 -81.9052
rradius 44.3289
rwrist 19.9484
rhand -5.21142 -31.6908
rfingers 7.12502
rthumb 20.5903 -60.6188
lclavicle -5.14355e-015 -1.39149e-015
lhumerus -43.0166 10.2492 84.7763
lradius 36.8933
lwrist -10.446
lhand -6.0052 -27.0354
lfingers 7.12502
lthumb 19.8274 1.97327
rfemur 0 0 0
rtibia 0
rfoot 0 0
rtoes 0
lfemur -5.09796 -5.5863 -13.2718
ltibia 20.768
lfoot -21.0509 10.9423
ltoes -56.1776
66
root -0.595104 18.7055 5.75709 1.72053 0.510603 -0.940666
lowerback 3.36819 -0.154754 -1.03279
upperback -2.90432 -0.263306 0.0321324
thorax -4.88489 -0.0941533 0.632184
lowerneck -11.0566 -1.77251 -0.858999
upperneck 29.1984 -3.09583 2.42871
head 11.3432 -1.20925 0.639545
rclavicle -1.31446e-014 -5.1684e-015
rhumerus -50.7717 -8.55502 -81.8988
rradius 44.328
rwrist 20.0286
rhand -3.61375 -31.7683
rfingers 7.12502
rthumb 22.1248 -60.5224
lclavicle -1.31446e-014 -5.1684e-015
lhumerus -43.0237 10.3818 84.7049
lradius 36.8411
lwrist -10.572
lhand -5.93418 -27.0188
lfingers 7.12502
lthumb 19.8956 1.98282
rfemur 0 0 0
rtibia 0
rfoot 0 0
rtoes 0
lfemur -5.10574 -5.56314 -13.2537
ltibia 20.7699
lfoot -21.0322 10.9461
ltoes -56.2295
67
root -0.595677 18.705 5.75782 1.72778 0.50811 -0.934199
lowerback 3.37655 -0.168428 -1.07506
upperback -2.90605 -0.283797 0.0383502
thorax -4.8909 -0.102695 0.663905
lowerneck -11.0168 -1.75414 -0.829604
upperneck 29.1787 -3.06857 2.40458
head 11.3259 -1.1973 0.629433
rclavicle 4.5969e-016 -2.98177e-015
rhumerus -50.771 -8.54736 -81.8901
rradius 44.307
rwrist 20.1229
rhand -4.61815 -31.0955
rfingers 7.12502
rthumb 21.1603 -59.9607
lclavicle 4.5969e-016 -2.98177e-015
lhumerus -43.0474 10.415 84.6911
lradius 36.8553
lwrist -10.5699
lhand -5.93818 -26.9951
lfingers 7.12502
lthumb 19.8918 2.00688
rfemur 0 0 0
rtibia 0
rfoot 0 0
rtoes 0
lfemur -5.11308 -5.57762 -13.2585
ltibia 20.7704
lfoot -21.0507 10.9375
ltoes -56.2177
68
root -0.596262 18.7044 5.75881 1.7427 0.517124 -0.930303
lowerback 3.37119 -0.179033 -1.10356
upperback -2.90992 -0.299543 0.0381071
thorax -4.89149 -0.109504 0.680806
lowerneck -10.9717 -1.73295 -0.801161
upperneck 29.1491 -3.04151 2.3974
head 11.3042 -1.18356 0.625703
rclavicle -2.99419e-015 -3.97569e-015
rhumerus -50.7652 -8.5422 -81.8972
rradius 44.2809
rwrist 20.172
rhand -2.34505 -32.1979
rfingers 7.12502
rthumb 23.3424 -60.8026
lclavicle -2.99419e-015 -3.97569e-015
lhumerus -43.0548 10.3994 84.6974
lradius 36.8612
lwrist -10.5284
lhand -6.00105 -26.9717
lfingers 7.12502
lthumb 19.8313 2.03655
rfemur 0 0 0
rtibia 0
rfoot 0 0
rtoes 0
lfemur -5.12815 -5.60211 -13.2586
ltibia 20.7685
lfoot -21.0719 10.9109
ltoes -56.152
69
root -0.596112 18.7048 5.75967 1.75034 0.511595 -0.941309
lowerback 3.40038 -0.18109 -1.08958
upperback -2.92657 -0.302215 0.0330095
thorax -4.92554 -0.111142 0.668086
lowerneck -10.983 -1.72026 -0.751947
upperneck 29.1767 -3.02279 2.35405
head 11.3152 -1.17459 0.603696
rclavicle 1.04362e-014 2.18663e-015
rhumerus -50.7787 -8.52624 -81.9085
rradius 44.2647
rwrist 20.179
rhand -2.72774 -32.1943
rfingers 7.12502
rthumb 22.9752 -60.8452
lclavicle 1.04362e-014 2.18663e-015
lhumerus -43.0389 10.5057 84.6429
lradius 36.7922
lwrist -10.6323
lhand -6.06252 -27.0326
lfingers 7.12502
lthumb 19.7723 1.98176
rfemur 0 0 0
rtibia 0
rfoot 0 0
rtoes 0
lfemur -5.13116 -5.60238 -13.2463
ltibia 20.7686
lfoot -21.0828 10.9035
ltoes -56.1176
